# xmcd
#
# Track frame offsets:
#	150
#	14817
#	27775
#	44572
#	57697
#	70109
#	85170
#	99413
#	112632
#	127126
#	138509
#	151445
#	160612
#	174846
#	185918
#
# Disc length: 2678 seconds
#
# Revision: 0
# Processed by: cddbd v1.5.2PL0 Copyright (c) Steve Scherf et al.
# Submitted via: EasyCDDAExtractor 10.1.0.1
#
DISCID=cb0a740f
DTITLE=Andy Williams - The Great Andy Williams CD 2
DYEAR=2003
DGENRE=Country
TTITLE0=Happy heart
TTITLE1=May each day
TTITLE2=Music from across the way
TTITLE3=In the arms of love
TTITLE4=Lonely street
TTITLE5=Home lovin' man
TTITLE6=A song for you
TTITLE7=Danny boy
TTITLE8=Can't help falling in love
TTITLE9=The wonderful world of the young
TTITLE10=Stranger on the shore
TTITLE11=A fool never lerns
TTITLE12=On the street where you live 
TTITLE13=And roses and roses
TTITLE14=Cry softly
EXTD=
EXTT0=
EXTT1=
EXTT2=
EXTT3=
EXTT4=
EXTT5=
EXTT6=
EXTT7=
EXTT8=
EXTT9=
EXTT10=
EXTT11=
EXTT12=
EXTT13=
EXTT14=
PLAYORDER=
